<svg id="Capa_1" data-name="Capa 1" xmlns="http://www.w3.org/2000/svg" viewBox="0 0 338.34 357.15"><path d="M169.7,218.63c8.26-10.78,6.83-23.77,9.1-35.85,6.43-34.15,26.32-57.24,57.53-71.32,6.9-3.12,14.08-5.42,21.21-8.27q-14.48,0-29,0c-7.56,0-10.29-2.82-10.28-10.44,0-9.75,0-19.49.06-29.24,0-6.77,3.08-9.84,9.75-9.84,10.15,0,20.3,0,30.45.07,7.83.06,10.3,2.58,10.33,10.36,0,9,0,17.9,0,26.85,0,3.65-.15,7.2-2.68,10.65,1.08,0,1.69,0,2.3,0,6.21-.53,6.42-.52,6,5.89-1.24,18.73-3.92,37.1-12.76,54.1-12,23.15-31.42,36.41-56.22,42.48A145.42,145.42,0,0,1,187,207.3c-5.26.58-8.24,3.22-9.75,8-2.53,8.06-2.56,16.31-1.9,24.6.31,3.86.63,7.73,1.15,11.56.33,2.36-.47,3.13-2.76,3-3.18-.2-7.31,1-9.33-.6-2.33-1.83-.08-5.94.26-9,1.14-10,1.26-20-1.4-29.81-2.41-8.92-4.43-10.77-13.56-11-21.74-.59-40.73-7.7-56.13-23.35C80.76,167.67,73.76,151.57,70,133.9a103,103,0,0,1-2.49-20.63c0-1.84.37-2.65,2.42-2.56,26.92,1.2,50.77,9.5,69.21,30.07,14,15.58,20.58,34.39,23,54.84.59,5,1.73,9.68,4.74,13.79C168.81,212.16,169.15,215.49,169.7,218.63ZM90.07,130.29l-.11.09.2,0c-.42,1.62,1,2.36,1.73,3.35a349.77,349.77,0,0,0,63.91,63.47C136.28,172.54,113.85,150.76,90.07,130.29ZM243.25,96c4.53,0,9.06,0,13.59,0,3.35,0,4.82-1.5,4.79-4.87-.06-8.53-.07-17.06.1-25.59.06-3.23-1.69-4.38-4.38-4.4-9.19-.07-18.38,0-27.58.07-2.94,0-4.26,1.53-4.24,4.54q.1,12.58,0,25.19c-.05,3.5,1.33,5.18,5,5.07C234.72,95.85,239,96,243.25,96Zm3.78,30.7c-1.49-.66-1.94.45-2.58,1A344.26,344.26,0,0,0,209.17,163c-8.83,10.16-16.5,21.22-24.83,31.77-.73.92-2.18,2.42-1.07,3.44,1.44,1.33,2.22-.77,3-1.56,19.33-19,37-39.53,54.07-60.51C242.79,133.18,245.68,130.45,247,126.66Z"/><path d="M168.88,161.69c-4.83-9.84-12.58-16.21-19-23.67C130.06,114.76,127,88.74,136.11,60.38,143,39.06,153.85,19.89,167,1.9c.83-1.14,1.62-3.19,3.43-.77,17,22.74,30.36,47.14,34.18,75.75,3.14,23.5-4.69,43.87-18.83,62.27C180.15,146.44,173.28,152.75,168.88,161.69Zm.39-127.33c-5.44,19.08-5.57,104.28-.17,111C173,125.77,173.17,42.06,169.27,34.36Z"/><path d="M257.91,357c-17.53-.45-30.17-13.48-29.59-30.52.59-17.43,13.86-29.75,31.45-29.22A29.88,29.88,0,1,1,257.91,357Zm18.92-29.83c-.06-10.56-8.46-19.38-18.39-19.29-10.36.08-18.42,8.71-18.4,19.69,0,10.46,8.13,18.86,18.23,18.9C268.91,346.48,276.89,338.18,276.83,327.13Z"/><path d="M135.07,357c-16.89-.31-29.52-13.76-29.13-31,.38-16.83,13.74-29.07,31.37-28.74,16.06.3,29,14,28.62,30.39C165.52,344.7,152.3,357.28,135.07,357ZM117.7,326.83c-.07,11.13,7.68,19.45,18.29,19.63,9.95.18,18-8.47,18-19.45.07-10.45-8.09-19.17-17.94-19.17C125.6,307.83,117.77,315.92,117.7,326.83Z"/><path d="M.11,327.34c0-8.55.09-17.1,0-25.64,0-2.43.57-3.23,3.08-3.21,12.29.12,24.58.08,36.87,0,2,0,2.75.43,2.84,2.61.3,7.59.39,7.57-7.07,7.57-7.08,0-14.16.13-21.24,0-2.45,0-3.15.75-3.2,3.19-.2,9.91-.28,9.91,9.51,10,5.21.05,10.42.13,15.62,0,2.07,0,2.73.68,2.87,2.73.52,7.6.6,7.59-7.09,7.56-5.88,0-11.76.05-17.63-.1-2.33-.06-3.5.44-3.26,3.06.31,3.43-1.44,8,.7,10,1.79,1.7,6.3.62,9.6.64,6.15,0,12.29.12,18.43-.06,2.45-.07,3.2.63,3.23,3.11.1,7,.22,7-6.78,7-10.95,0-21.91-.11-32.86.1-3.1.06-3.75-.86-3.67-3.79.2-8.28.07-16.56.07-24.85Z"/><path d="M175.32,326.92c0-8.27.15-16.54-.08-24.81-.09-3.12.95-3.75,3.85-3.66,7.47.24,14.95,0,22.42.21,14.3.44,22.62,11.57,19.19,25.43-1.89,7.61-8.52,13.12-17,14.16a86.06,86.06,0,0,1-14,.4c-2.31-.1-3,.7-2.92,3,.16,3.86-.09,7.74.08,11.61.09,2.14-.66,2.66-2.7,2.74-8.76.35-8.77.42-8.8-8.21,0-6.94,0-13.88,0-20.82Zm11.47-8.37c0,2.4,0,4.79,0,7.19,0,1.33.07,2.37,1.83,2.31,4.52-.15,9.08.09,13.55-.41s7.2-3.87,7.41-8.49c.24-5.07-2.19-8.75-6.78-9.85a26.78,26.78,0,0,0-5.94-.57C186.83,308.63,186.83,308.66,186.79,318.55Z"/><path d="M317.57,356.9c-7.77.18-14.65-2.4-21-6.65-1.79-1.19-2.38-2.33-.57-3.95a4.5,4.5,0,0,0,.45-.66c1.27-1.7,2.23-4.21,3.92-4.89s3.42,1.93,5.31,2.75c4.94,2.13,9.92,4.08,15.46,2.78,2.72-.64,5.07-1.77,5.54-5s-1.55-5.14-4.12-6.09c-4.74-1.75-9.69-2.94-14.46-4.62-6.28-2.22-11-6-11.72-13.22-.63-6.29,1.07-11.81,6.17-15.65,7.79-5.86,16.42-5.39,25.18-2.45.63.21,1.24.48,1.85.74,7.86,3.38,7.8,3.35,3.51,10.59-1.13,1.91-1.68,2.62-4.05,1.14-4.42-2.77-9.31-4.68-14.78-3.95-3.14.43-5.73,1.6-6.31,5.1-.63,3.76,1.58,5.72,4.77,6.8,4.55,1.53,9.19,2.78,13.69,4.42,9.27,3.37,12.88,8.84,11.77,17.42-1.1,8.41-7.12,14-16.18,15.08C320.51,356.8,319,356.82,317.57,356.9Z"/><path d="M50.4,326.77c.6-11.93,5.32-21.81,17.05-26.84,11.57-5,22.65-3.52,32.76,4.3,1.73,1.35,2.44,2.39.41,3.93a5,5,0,0,0-.55.58c-1.64,1.75-3,4.2-5,5.08-2.59,1.12-3.67-2.33-5.66-3.44a18.4,18.4,0,0,0-20.31,1.47c-6.08,4.92-8.64,14.46-6,22.23,4.2,12.14,18.42,16.11,28.81,8.11,1.07-.82,2.16-2.91,3.49-1.94,2.44,1.77,5.24,3.63,6.31,6.5.54,1.43-1.77,2.79-3.12,3.81-9.85,7.4-20.59,8.58-31.66,3.5C55.64,348.87,50.59,339.39,50.4,326.77Z"/><path d="M91.71,103.13c-5.33,0-10.67.06-16,0-5.61-.07-9-3.34-9-8.94q-.1-15.6,0-31.22c.06-6.5,2.87-9.27,9.32-9.3,10.53,0,21.07,0,31.61.06,6.63.06,9.44,2.93,9.49,9.61q.12,15.21.07,30.41c0,5.94-3.16,9.21-9.07,9.35C102.66,103.23,97.18,103.13,91.71,103.13Zm.4-42v.09c-4.54,0-9.08.08-13.61,0-3.4-.08-4.77,1.34-4.71,4.79.16,8.26.2,16.54,0,24.8C73.75,94.72,75.5,96,79.12,96q13-.12,26,0c3.42,0,4.82-1.6,4.81-4.88,0-8.54,0-17.08.07-25.61,0-3.1-1.34-4.37-4.31-4.34C101.17,61.2,96.64,61.17,92.11,61.17Z"/><path d="M91.81,254.83c-5.2,0-10.41,0-15.62,0-6.81,0-9.53-2.72-9.54-9.39q0-14.43,0-28.85c0-8.92,2.19-11,11.22-10.92q14.43.06,28.85,0c7.57,0,10.23,2.43,10.29,9.93q.12,14.82,0,29.64c0,5.73-4,9.58-9.59,9.59C102.23,254.84,97,254.83,91.81,254.83ZM92,212.94V213c-4.4,0-8.81.13-13.21,0-3.56-.14-5.08,1.23-5,4.89.16,8,.06,16,.09,24,0,5.44.46,5.89,6,6,5.19.09,10.41-.18,15.57.27a60.27,60.27,0,0,0,12-.65c2-.22,2.5-2.31,2.51-4.08q.1-13.22,0-26.42c0-2.71-1.45-4.12-4.29-4.07C101.06,213,96.53,212.94,92,212.94Z"/><path d="M268.82,229.91c0,5.34.09,10.68,0,16-.12,5.86-3.09,8.78-9,8.85-8.68.09-17.36,0-26,.08-1.87,0-3.23-.15-2.86-2.51.3-1.85-.92-4.46,2.77-4.39q11.21.18,22.42,0c5-.09,5.48-.72,5.49-5.67,0-8.14-.05-16.29.09-24.44.06-3.54-1.2-5.32-4.91-4.93-.93.1-1.9-.12-2.8.06-3.58.69-4.63-.7-4.38-4.26.17-2.53,1-3.21,3.31-3.05,2.53.17,5.08,0,7.61,0,5.17.13,8.18,3,8.31,8.21s0,10.68,0,16Z"/><path d="M232,221.84c0,4.14-.1,8.28,0,12.42.08,2.15-.7,2.77-2.76,2.7-3.73-.13-7.48-.19-11.21,0-2.54.14-2.62-1.38-2.33-3s-1.59-4.35,2-4.45c1.2,0,2.41-.26,3.6-.17,2.64.21,4.2-.22,4.16-3.56,0-3.09-1.48-3.41-3.94-3.48-5.85-.16-5.84-.25-5.9-6-.11-10.59-.11-10.59,10.65-10.54,5.71,0,5.71,0,5.7,5.69v10.42Z"/><path d="M209,222.31v2c0,5.21,0,5.41-5.36,5.29-2.91-.07-3.62,1-3.55,3.63,0,1.24,1,3.47-1.13,3.66s-5.23,1.33-6.74-.69c-1-1.29-.8-4.16,0-5.78s3.2-.73,4.82-.62c2.93.19,4-.7,3.65-3.74-.31-2.64.06-5.35-.13-8-.18-2.48.67-3.18,3.16-3.11C208.91,215.06,208.92,214.91,209,222.31Z"/><path d="M244.59,240.3c-5.12,0-4.92,0-5.15-6.73-.21-6.17,4.27-3,6.7-3.54,5.09-1.13,3.86,2.81,3.91,5.45C250.15,240.31,250.08,240.31,244.59,240.3Z"/><path d="M137.52,236.08c.75,3-.25,5-4.64,4.27-2.19-.39-5.18,1.12-5-3.34.28-6.9.09-6.57,5.85-7C138.63,229.58,137.34,232.72,137.52,236.08Z"/><path d="M154.61,225.68c-.3,6.25,1,5.43-6.62,5.46-5.68,0-2.36-4.26-2.71-6.42-1-6,3.88-3.16,6.34-3.58C155.92,220.39,154.29,223.83,154.61,225.68Z"/><path d="M139.9,250.37c.08-5.79.09-5.56,6-5.78s3.09,4.06,3.48,6.42c.84,5.07-3.22,3-5.55,3.44C139.81,255.16,139.39,252.87,139.9,250.37Z"/><path d="M244.42,209.1c.49,2.72-.1,4.07-3.41,4.06-3.14,0-3.23-1.31-3.42-3.79-.23-3.14.9-3.72,3.77-3.76S244.94,206.6,244.42,209.1Z"/><path d="M90.16,130.35l-.2,0,.11-.09Z"/><path d="M253.65,78.75c.21,9.65.28,10-9.91,10s-10.25.08-10.17-10.12c.08-9.83.08-9.83,10-9.77h.4C253.74,68.87,253.74,68.87,253.65,78.75Z"/><path d="M81.85,78.75c.07-9.88.07-9.88,9.81-10,10.25-.09,10.25-.09,10.24,10.28,0,9.71,0,9.71-9.87,9.66h-.4C81.78,88.68,81.78,88.68,81.85,78.75Z"/><path d="M91.74,240.4c-9.25,0-10.11,1.21-9.91-9.78.19-10.18.08-10.18,10.21-10.18,9.75,0,9.75,0,9.77,9.76C101.83,240.41,101.83,240.41,91.74,240.4Z"/></svg>