<svg id="Capa_1" data-name="Capa 1" xmlns="http://www.w3.org/2000/svg" viewBox="0 0 208.02 254.86"><defs><style>.cls-1{fill:#2e8b57;}</style></defs><path class="cls-1" d="M103.06,218.63c8.27-10.78,6.83-23.77,9.11-35.85,6.42-34.15,26.32-57.24,57.52-71.32,6.9-3.12,14.08-5.42,21.21-8.27q-14.47,0-29,0c-7.56,0-10.3-2.82-10.28-10.44,0-9.75,0-19.49.06-29.24,0-6.77,3.08-9.84,9.74-9.84,10.15,0,20.31,0,30.46.07,7.83.06,10.3,2.58,10.32,10.36,0,9,0,17.9,0,26.85,0,3.65-.16,7.2-2.68,10.65,1.07,0,1.69,0,2.29,0,6.21-.53,6.42-.52,6,5.89-1.24,18.73-3.93,37.1-12.77,54.1-12,23.15-31.42,36.41-56.22,42.48a144.8,144.8,0,0,1-18.51,3.25c-5.25.58-8.24,3.22-9.75,8-2.53,8.06-2.55,16.31-1.89,24.6.31,3.86.62,7.73,1.15,11.56.32,2.36-.47,3.13-2.76,3-3.19-.2-7.32,1-9.33-.6-2.33-1.83-.09-5.94.26-9,1.13-10,1.26-20-1.4-29.81-2.41-8.92-4.44-10.77-13.56-11-21.74-.59-40.74-7.7-56.14-23.35C14.12,167.67,7.12,151.57,3.32,133.9A103,103,0,0,1,.83,113.27c0-1.84.37-2.65,2.42-2.56,26.91,1.2,50.77,9.5,69.2,30.07,14,15.58,20.58,34.39,23,54.84.59,5,1.73,9.68,4.74,13.79C102.18,212.16,102.52,215.49,103.06,218.63ZM23.44,130.29l-.12.09.2,0c-.41,1.62,1,2.36,1.73,3.35a349.51,349.51,0,0,0,63.92,63.47C69.65,172.54,47.21,150.76,23.44,130.29ZM176.62,96c4.53,0,9.06,0,13.59,0,3.34,0,4.81-1.5,4.79-4.87-.07-8.53-.07-17.06.09-25.59.06-3.23-1.68-4.38-4.37-4.4-9.19-.07-18.39,0-27.58.07-2.95,0-4.27,1.53-4.24,4.54q.1,12.58-.05,25.19c0,3.5,1.34,5.18,5,5.07C168.09,95.85,172.35,96,176.62,96Zm3.77,30.7c-1.48-.66-1.94.45-2.57,1A342.27,342.27,0,0,0,142.54,163c-8.84,10.16-16.51,21.22-24.84,31.77-.73.92-2.17,2.42-1.06,3.44,1.44,1.33,2.21-.77,3-1.56,19.34-19,37-39.53,54.08-60.51C176.16,133.18,179.05,130.45,180.39,126.66Z"/><path class="cls-1" d="M102.24,161.69c-4.82-9.84-12.58-16.21-18.95-23.67-19.86-23.26-23-49.28-13.81-77.64C76.35,39.06,87.21,19.89,100.34,1.9c.83-1.14,1.62-3.19,3.43-.77,17,22.74,30.37,47.14,34.19,75.75,3.14,23.5-4.69,43.87-18.84,62.27C113.52,146.44,106.64,152.75,102.24,161.69Zm.39-127.33c-5.44,19.08-5.56,104.28-.16,111C106.41,125.77,106.53,42.06,102.63,34.36Z"/><path class="cls-1" d="M25.08,103.13c-5.34,0-10.68.06-16,0-5.61-.07-9-3.34-9-8.94Q-.06,78.59.07,63c0-6.5,2.87-9.27,9.31-9.3,10.54,0,21.08,0,31.62.06,6.63.06,9.44,2.93,9.49,9.61q.1,15.21.07,30.41c0,5.94-3.17,9.21-9.07,9.35C36,103.23,30.55,103.13,25.08,103.13Zm.39-42v.09c-4.54,0-9.07.08-13.61,0-3.39-.08-4.77,1.34-4.7,4.79.15,8.26.19,16.54,0,24.8C7.11,94.72,8.86,96,12.49,96q13-.12,26,0c3.42,0,4.82-1.6,4.82-4.88,0-8.54,0-17.08.07-25.61,0-3.1-1.34-4.37-4.32-4.34C34.54,61.2,30,61.17,25.47,61.17Z"/><path class="cls-1" d="M25.18,254.83c-5.21,0-10.42,0-15.62,0-6.81,0-9.53-2.72-9.55-9.39,0-9.62,0-19.23,0-28.85,0-8.92,2.18-11,11.21-10.92q14.43.06,28.85,0c7.57,0,10.23,2.43,10.29,9.93q.13,14.82,0,29.64c0,5.73-4,9.58-9.58,9.59C35.59,254.84,30.38,254.83,25.18,254.83Zm.18-41.89V213c-4.41,0-8.81.13-13.21,0-3.57-.14-5.09,1.23-5,4.89.16,8,.05,16,.08,24,0,5.44.47,5.89,6,6,5.19.09,10.41-.18,15.56.27a60.42,60.42,0,0,0,12-.65c2-.22,2.49-2.31,2.51-4.08q.09-13.22,0-26.42c0-2.71-1.45-4.12-4.3-4.07C34.43,213,29.89,212.94,25.36,212.94Z"/><path class="cls-1" d="M202.19,229.91c0,5.34.08,10.68,0,16-.12,5.86-3.09,8.78-9,8.85-8.68.09-17.36,0-26,.08-1.86,0-3.23-.15-2.85-2.51.29-1.85-.92-4.46,2.76-4.39q11.22.18,22.43,0c5-.09,5.48-.72,5.49-5.67,0-8.14-.06-16.29.08-24.44.06-3.54-1.19-5.32-4.91-4.93-.92.1-1.89-.12-2.79.06-3.58.69-4.63-.7-4.39-4.26.17-2.53,1-3.21,3.32-3.05,2.52.17,5.07,0,7.61,0,5.17.13,8.18,3,8.31,8.21s0,10.68,0,16Z"/><path class="cls-1" d="M165.33,221.84c0,4.14-.11,8.28,0,12.42.08,2.15-.69,2.77-2.76,2.7-3.73-.13-7.48-.19-11.21,0-2.54.14-2.62-1.38-2.32-3s-1.6-4.35,2-4.45c1.2,0,2.41-.26,3.59-.17,2.64.21,4.21-.22,4.17-3.56,0-3.09-1.49-3.41-3.95-3.48-5.84-.16-5.84-.25-5.9-6-.1-10.59-.1-10.59,10.66-10.54,5.7,0,5.7,0,5.7,5.69v10.42Z"/><path class="cls-1" d="M142.33,222.31c0,.67,0,1.34,0,2,0,5.21,0,5.41-5.35,5.29-2.92-.07-3.62,1-3.55,3.63,0,1.24,1,3.47-1.13,3.66-2.26.2-5.23,1.33-6.74-.69-1-1.29-.8-4.16,0-5.78s3.19-.73,4.81-.62c2.94.19,4-.7,3.66-3.74-.32-2.64.06-5.35-.14-8-.18-2.48.67-3.18,3.17-3.11C142.28,215.06,142.28,214.91,142.33,222.31Z"/><path class="cls-1" d="M178,240.3c-5.12,0-4.92,0-5.14-6.73-.21-6.17,4.26-3,6.7-3.54,5.08-1.13,3.86,2.81,3.91,5.45C183.51,240.31,183.44,240.31,178,240.3Z"/><path class="cls-1" d="M70.88,236.08c.76,3-.25,5-4.63,4.27-2.2-.39-5.18,1.12-5-3.34.28-6.9.08-6.57,5.85-7C72,229.58,70.71,232.72,70.88,236.08Z"/><path class="cls-1" d="M88,225.68c-.3,6.25,1,5.43-6.62,5.46-5.68,0-2.36-4.26-2.72-6.42-1-6,3.89-3.16,6.34-3.58C89.28,220.39,87.65,223.83,88,225.68Z"/><path class="cls-1" d="M73.27,250.37c.07-5.79.08-5.56,6-5.78s3.09,4.06,3.49,6.42c.84,5.07-3.22,3-5.55,3.44C73.18,255.16,72.76,252.87,73.27,250.37Z"/><path class="cls-1" d="M177.78,209.1c.5,2.72-.09,4.07-3.41,4.06-3.13,0-3.23-1.31-3.41-3.79-.24-3.14.9-3.72,3.76-3.76S178.31,206.6,177.78,209.1Z"/><path class="cls-1" d="M23.52,130.35l-.2,0,.11-.09Z"/><path class="cls-1" d="M187,78.75c.21,9.65.29,10-9.91,10s-10.25.08-10.17-10.12c.08-9.83.08-9.83,9.95-9.77h.4C187.11,68.87,187.11,68.87,187,78.75Z"/><path class="cls-1" d="M15.22,78.75c.07-9.88.07-9.88,9.8-10,10.25-.09,10.25-.09,10.25,10.28,0,9.71,0,9.71-9.87,9.66H25C15.15,88.68,15.15,88.68,15.22,78.75Z"/><path class="cls-1" d="M25.11,240.4c-9.25,0-10.11,1.21-9.91-9.78.18-10.18.08-10.18,10.2-10.18,9.76,0,9.76,0,9.78,9.76C35.2,240.41,35.2,240.41,25.11,240.4Z"/></svg>