<svg id="Capa_1_Imagen" data-name="Capa 1 Imagen" xmlns="http://www.w3.org/2000/svg" viewBox="0 0 338.88 357.85"><defs><style>.cls-1{fill:#fff;}</style></defs><path d="M0,0H338.88V357.85H0ZM170.79,297.08c-1.67-4.23-3.2-8.19-4.79-12.13-1.77-4.37-4.3-8.58-5.24-13.12-2.46-11.77-3.27-23.82-7.77-35.24s-8.75-22.62-16.28-32.51a139.64,139.64,0,0,0-20.88-22.5,114.46,114.46,0,0,0-25.65-16.32c-18.59-8.64-38.35-12.6-58.78-13.51-4.71-.21-5.31.24-5,5,1.21,21.09,5.13,41.49,15.37,60.3,4.64,8.54,9.6,16.72,16.23,24A108.62,108.62,0,0,0,99.67,270c14,5.43,28.56,7.72,43.52,8,11.59.22,14.95,2.76,17.92,13.89a96.77,96.77,0,0,1,.93,46.56c-1.39,6.29.4,8.38,7,8,2.48-.13,5-.33,7.46-.27,2.9.07,3.91-1.28,3.61-4-.55-4.95-1.16-9.89-1.54-14.84-.86-11.26-.95-22.45,2.24-33.48,2-7.05,6.79-10.24,13.69-11.49,12.12-2.18,24.36-4,36.24-7.2a111.33,111.33,0,0,0,54.69-33.14c8.25-9,14.52-19.55,19.58-30.7,7.1-15.61,9.34-32.49,12.32-49.13,1.07-5.93,1.14-12.06,1.45-18.1.24-4.55-.56-5.19-5.23-5.13-2,0-4,0-5.59,0,.81-3.56,2.21-7,2.27-10.42.25-14.06.2-28.13.05-42.2-.08-8-3.57-11.55-11.6-11.66q-23.73-.33-47.47-.14c-7.81.06-11.73,4.13-11.82,12q-.21,21.1-.06,42.21c.08,8.91,3.8,12.42,12.82,12.7,1.3,0,2.6,0,3.9,0h33.82c.87,0,1.75.11,2.62.17-6,2.65-12,4.83-17.95,7-21.11,7.57-40.29,18.48-56.41,34.11a141.82,141.82,0,0,0-16.49,19.89c-7.76,10.92-12.35,23.51-16,36.21C183,248,182.14,257.56,180.89,267c-1.28,9.59-2.68,19.08-8,27.47A26.89,26.89,0,0,1,170.79,297.08ZM169,219.18c7.07-8.44,14.64-17.22,21.91-26.24A211.67,211.67,0,0,0,204.07,175c8.31-12.85,13.08-27.21,15.79-42.12,1.93-10.64,1.19-21.31-1.12-32.06-3.82-17.68-8.79-34.75-17.17-50.95s-18.69-31-29.29-45.73a5.7,5.7,0,0,0-.81-1c-1.63-1.43-3-1.74-4.52.38-4.64,6.62-9.72,13-14,19.76-5.81,9.18-11.77,18.38-16.41,28.17C130.6,63.87,125,76.59,121,89.72c-6.91,22.9-8.26,46.15,2.41,68.55,4,8.34,8.36,16.67,13.82,24.08,5.32,7.21,12.47,13.05,18.42,19.84C160.48,207.69,164.71,213.71,169,219.18ZM60.28,74.6c-8.13,0-16.26-.16-24.38.05-6.61.18-10.38,3.82-10.46,10.39-.2,15.25-.18,30.51,0,45.77,0,5.51,3.62,9.26,9.1,10.23a37.57,37.57,0,0,0,6.46.42c14,0,28,.14,41.94-.07,9.58-.14,13.38-4.2,13.39-13.61q0-19.8,0-39.61c0-9.87-3.57-13.44-13.55-13.56C75.24,74.52,67.76,74.59,60.28,74.6Zm-.35,272.13H81.06l1,0c9.29-.24,14-4.92,14.1-14.11q.12-19.32,0-38.63c-.07-10.38-3.26-13.56-13.58-13.89-.86,0-1.73,0-2.6,0-10.62,0-21.24,0-31.86.06-4.43,0-8.89,0-13.3.38-6,.52-8.43,3-9.27,8.94A34.44,34.44,0,0,0,25.3,294c0,13.2-.06,26.4,0,39.6,0,9.59,3.5,13,13.2,13.13C45.63,346.79,52.78,346.74,59.93,346.73Zm250.32-33.64c0-7.35.1-14.7,0-22-.11-6.42-3.47-10.15-9.82-10.7a100.06,100.06,0,0,0-13.3-.21,5.11,5.11,0,0,0-3.83,2.25c-2.24,5,.48,8.34,6,7.72,1.5-.17,3-.22,4.53-.25,4.19-.06,6.05,1.59,6.06,5.79q.09,17.85-.07,35.68c0,4.62-1.17,5.78-5.81,5.85-10.28.14-20.56.12-30.85.17a19.16,19.16,0,0,0-3.56.12c-4,.77-2.25,4-2.62,6.34-.34,2.13,1.08,2.93,2.94,2.92,13.1,0,26.21.15,39.3-.3,7.71-.27,11-4.23,11.07-11.92C310.32,327.36,310.25,320.23,310.25,313.09Zm-51.89-11.38h0c0-5.83,0-11.67,0-17.5,0-2.52-1.13-3.88-3.68-3.87-4.64,0-9.29.05-13.93.22-2.37.09-4.2,1.3-4.63,3.78a67.38,67.38,0,0,0-1.16,9.14c-.3,8.7,2.36,9.56,8.66,9.2a4.71,4.71,0,0,1,.65,0c3.54.25,4.88,1.7,4.72,5.16-.14,3.24-1.47,4.4-5.06,4.4-1,0-2,0-2.92,0-6,.28-6,.28-6.06,6.09,0,3,1.1,4.17,4.15,4.17,5.09,0,10.17-.1,15.25,0,2.85.05,4.13-1,4-4C258.26,312.94,258.36,307.32,258.36,301.71Zm-44.59.8H214c0,2.05-.09,4.11,0,6.15.15,3-1.39,4.18-4.11,4.15-1.62,0-3.23-.34-4.84-.4-2.1-.07-3.62.81-3.86,3-.26,2.41-1.18,5.69,1.72,6.54s6.29.24,9.46.06c.38,0,1-1.34,1-2.09.47-7.27.45-7.37,7.9-7.42,3.11,0,4.66-1.1,4.54-4.35-.1-2.59.05-5.19,0-7.78-.1-7.51-.69-8.05-8.28-7.68l-.65,0c-2.16,0-3.12,1.2-3.13,3.28ZM283.57,320c.06-6.72.06-6.72-6.76-6.89l-.65,0c-6.91-.46-7.1-.27-6.94,6.64,0,.54,0,1.08,0,1.62.17,5,.75,5.61,5.65,5.69h1.62C283.49,327,283.51,327,283.57,320Zm-172.11,1.24c.2,2-1,5.16,2.94,5.69a36.64,36.64,0,0,0,6.78.32c1.18-.06,3.33-.78,3.35-1.28.17-3.95,0-7.92-.25-11.88,0-.34-1-.77-1.6-.93C115.81,311.26,111.93,313.94,111.46,321.22ZM149,307.72c0-1.4.33-2.91-.1-4.16a4.28,4.28,0,0,0-2.53-2.55c-2.28-.44-4.69-.2-7-.34-3.06-.17-4,1.43-3.85,4.19a18.43,18.43,0,0,1-.26,4.13c-.84,4.51-.21,5.37,4.33,5.58.75,0,1.51,0,2.26,0C148.92,314.68,148.92,314.68,149,307.72Zm-13.85,38.46a25.55,25.55,0,0,0,4.2-.06c.84-.14,2.19-.83,2.26-1.39.36-3.18.45-6.4.5-9.61,0-.51-.66-1.47-1-1.49-3.61-.16-7.28-.53-10.78,0-.91.15-1.7,3.4-1.85,5.29C127.86,346.11,128,346.12,135.15,346.18Zm140.78-61.26c0-4.18-.73-5-4.36-4.92-4.49.06-5.64,1-5.59,4.76.06,4.51,1.17,5.62,5.57,5.54C275.24,290.23,276,289.35,275.93,284.92Z"/><path class="cls-1" d="M170.79,297.08a26.89,26.89,0,0,0,2.13-2.63c5.29-8.39,6.69-17.88,8-27.47,1.25-9.42,2.07-19,4.69-28.09,3.67-12.7,8.26-25.29,16-36.21a141.82,141.82,0,0,1,16.49-19.89c16.12-15.63,35.3-26.54,56.41-34.11,6-2.14,12-4.32,17.95-7-.87-.06-1.75-.16-2.62-.17H256c-1.3,0-2.6,0-3.9,0-9-.28-12.74-3.79-12.82-12.7q-.18-21.11.06-42.21c.09-7.87,4-11.94,11.82-12q23.75-.18,47.47.14c8,.11,11.52,3.69,11.6,11.66.15,14.07.2,28.14-.05,42.2-.06,3.44-1.46,6.86-2.27,10.42,1.61,0,3.6,0,5.59,0,4.67-.06,5.47.58,5.23,5.13-.31,6-.38,12.17-1.45,18.1-3,16.64-5.22,33.52-12.32,49.13-5.06,11.15-11.33,21.66-19.58,30.7A111.33,111.33,0,0,1,230.7,275.2c-11.88,3.15-24.12,5-36.24,7.2-6.9,1.25-11.66,4.44-13.69,11.49-3.19,11-3.1,22.22-2.24,33.48.38,4.95,1,9.89,1.54,14.84.3,2.72-.71,4.07-3.61,4-2.48-.06-5,.14-7.46.27-6.56.37-8.35-1.72-7-8a96.77,96.77,0,0,0-.93-46.56c-3-11.13-6.33-13.67-17.92-13.89-15-.29-29.56-2.58-43.52-8A108.62,108.62,0,0,1,58,241.1c-6.63-7.31-11.59-15.49-16.23-24-10.24-18.81-14.16-39.21-15.37-60.3-.27-4.78.33-5.23,5-5,20.43.91,40.19,4.87,58.78,13.51a114.46,114.46,0,0,1,25.65,16.32,139.64,139.64,0,0,1,20.88,22.5c7.53,9.89,11.8,21.16,16.28,32.51s5.31,23.47,7.77,35.24c.94,4.54,3.47,8.75,5.24,13.12C167.59,288.89,169.12,292.85,170.79,297.08ZM274.67,131.75h0c6,0,11.91,0,17.87,0,5.59,0,7.29-1.77,7.3-7.44q0-16.55.07-33.09c0-5-1.53-6.57-6.58-6.66-4.23-.07-8.45,0-12.68,0-8.23,0-16.46,0-24.69.14-5.51.09-6.9,1.63-6.9,7q0,16.23-.05,32.45c0,6,1.65,7.62,7.79,7.61C262.75,131.74,268.71,131.75,274.67,131.75Zm4.66,41.82-.66-.56a7.25,7.25,0,0,0-1.88.8c-3.51,2.87-7.13,5.62-10.4,8.72-10.95,10.4-21.91,20.79-32.6,31.46a237,237,0,0,0-16,17.82c-9.27,11.38-18.23,23-27.31,34.55-.34.43-.85.91-.84,1.35a12.53,12.53,0,0,0,.53,2.53,6,6,0,0,0,2.22-.61A31.63,31.63,0,0,0,194.8,267c8.52-8.39,17.16-16.68,25.57-25.18,5.76-5.82,11.33-11.86,16.8-18,7.57-8.43,15-17,22.44-25.54,5.52-6.35,11-12.69,16.43-19.15A37.91,37.91,0,0,0,279.33,173.57Zm-221.2,4.74a10.82,10.82,0,0,0,1,2.52C64,186.67,68.9,192.57,74,198.27c5.53,6.18,11,12.45,17,18.21q15.93,15.39,32.46,30.17c7.26,6.45,15.06,12.3,22.63,18.4a17.94,17.94,0,0,0,1.93,1.21l.52-.61c-4-4.37-7.84-8.84-11.94-13.08-11-11.41-21.91-22.92-33.22-34-9.25-9.08-18.93-17.72-28.58-26.39C69.65,187.56,64.19,183.32,58.13,178.31Z"/><path class="cls-1" d="M169,219.18c-4.24-5.47-8.47-11.49-13.29-17-5.95-6.79-13.1-12.63-18.42-19.84-5.46-7.41-9.85-15.74-13.82-24.08-10.67-22.4-9.32-45.65-2.41-68.55C125,76.59,130.6,63.87,136.5,51.44c4.64-9.79,10.6-19,16.41-28.17,4.32-6.81,9.4-13.14,14-19.76,1.49-2.12,2.89-1.81,4.52-.38a5.7,5.7,0,0,1,.81,1c10.6,14.71,20.92,29.53,29.29,45.73s13.35,33.27,17.17,50.95c2.31,10.75,3,21.42,1.12,32.06-2.71,14.91-7.48,29.27-15.79,42.12a211.67,211.67,0,0,1-13.21,17.94C183.59,202,176,210.74,169,219.18Zm-.74-21.73.95-.11c2.71-6.44,2.91-13.37,3.05-20.14.63-31.13,1.18-62.27,1.24-93.4,0-10.45-1.43-20.91-2.31-31.35-.09-1.09-.89-2.13-1.35-3.19l-1,.13c-1,7.7-2.23,15.38-2.79,23.12-2.63,36.72-3.21,73.46-.09,110.19C166.34,187.65,167.43,192.54,168.21,197.45Z"/><path class="cls-1" d="M60.28,74.6c7.48,0,15-.08,22.43,0,10,.12,13.51,3.69,13.55,13.56q.06,19.8,0,39.61c0,9.41-3.81,13.47-13.39,13.61-14,.21-28,.1-41.94.07a37.57,37.57,0,0,1-6.46-.42c-5.48-1-9.05-4.72-9.1-10.23-.16-15.26-.18-30.52,0-45.77.08-6.57,3.85-10.21,10.46-10.39C44,74.44,52.15,74.6,60.28,74.6Zm.62,10v.11c-6.39,0-12.78,0-19.17,0-5.23,0-6.74,1.58-6.74,6.82q0,16.4,0,32.78c0,5.55,1.57,7.35,7,7.4q18.69.15,37.38,0c4.4,0,6.35-2,6.39-6.41q.12-17.52,0-35c0-3.93-1.55-5.58-5.49-5.66C73.9,84.5,67.4,84.59,60.9,84.59Z"/><path class="cls-1" d="M59.93,346.73c-7.15,0-14.3.06-21.46,0-9.7-.1-13.17-3.54-13.2-13.13,0-13.2,0-26.4,0-39.6a34.44,34.44,0,0,1,.23-4.54c.84-5.9,3.3-8.42,9.27-8.94,4.41-.39,8.87-.36,13.3-.38,10.62-.06,21.24-.05,31.86-.06.87,0,1.74,0,2.6,0,10.32.33,13.51,3.51,13.58,13.89q.12,19.3,0,38.63c0,9.19-4.81,13.87-14.1,14.11l-1,0ZM60.59,290v.12c-6.6,0-13.2-.07-19.8,0-4,.06-5.71,1.5-5.73,5.07-.07,12.42,0,24.85.08,37.28,0,2.84,1.51,4.54,4.38,4.54,13.62,0,27.24.08,40.86-.1,4.09-.06,5.34-1.59,5.37-5.73q.14-17.67,0-35.34c0-4.07-1.68-5.77-5.72-5.83C73.57,289.92,67.08,290,60.59,290Z"/><path class="cls-1" d="M310.25,313.09c0,7.14.07,14.27,0,21.41-.09,7.69-3.36,11.65-11.07,11.92-13.09.45-26.2.26-39.3.3-1.86,0-3.28-.79-2.94-2.92.37-2.3-1.35-5.57,2.62-6.34a19.16,19.16,0,0,1,3.56-.12c10.29,0,20.57,0,30.85-.17,4.64-.07,5.77-1.23,5.81-5.85q.15-17.83.07-35.68c0-4.2-1.87-5.85-6.06-5.79-1.51,0-3,.08-4.53.25-5.49.62-8.21-2.69-6-7.72a5.11,5.11,0,0,1,3.83-2.25,100.06,100.06,0,0,1,13.3.21c6.35.55,9.71,4.28,9.82,10.7C310.35,298.39,310.25,305.74,310.25,313.09Z"/><path class="cls-1" d="M258.36,301.71c0,5.61-.1,11.23,0,16.84.08,3-1.2,4-4,4-5.08-.09-10.16,0-15.25,0-3,0-4.19-1.14-4.15-4.17.07-5.81.07-5.81,6.06-6.09,1,0,2,0,2.92,0,3.59,0,4.92-1.16,5.06-4.4.16-3.46-1.18-4.91-4.72-5.16a4.71,4.71,0,0,0-.65,0c-6.3.36-9-.5-8.66-9.2a67.38,67.38,0,0,1,1.16-9.14c.43-2.48,2.26-3.69,4.63-3.78,4.64-.17,9.29-.18,13.93-.22,2.55,0,3.69,1.35,3.68,3.87,0,5.83,0,11.67,0,17.5Z"/><path class="cls-1" d="M213.77,302.51V296c0-2.08,1-3.25,3.13-3.28l.65,0c7.59-.37,8.18.17,8.28,7.68,0,2.59-.11,5.19,0,7.78.12,3.25-1.43,4.33-4.54,4.35-7.45,0-7.43.15-7.9,7.42,0,.75-.62,2.06-1,2.09-3.17.18-6.55.8-9.46-.06s-2-4.13-1.72-6.54c.24-2.23,1.76-3.11,3.86-3,1.61.06,3.22.38,4.84.4,2.72,0,4.26-1.19,4.11-4.15-.11-2,0-4.1,0-6.15Z"/><path class="cls-1" d="M283.57,320c-.06,7-.08,7-7,7h-1.62c-4.9-.08-5.48-.67-5.65-5.69,0-.54,0-1.08,0-1.62-.16-6.91,0-7.1,6.94-6.64l.65,0C283.63,313.26,283.63,313.26,283.57,320Z"/><path class="cls-1" d="M111.46,321.22c.47-7.28,4.35-10,11.22-8.08.6.16,1.58.59,1.6.93.22,4,.42,7.93.25,11.88,0,.5-2.17,1.22-3.35,1.28a36.64,36.64,0,0,1-6.78-.32C110.46,326.38,111.66,323.24,111.46,321.22Z"/><path class="cls-1" d="M149,307.72c-.08,7-.08,7-7.19,6.87-.75,0-1.51,0-2.26,0-4.54-.21-5.17-1.07-4.33-5.58a18.43,18.43,0,0,0,.26-4.13c-.13-2.76.79-4.36,3.85-4.19,2.35.14,4.76-.1,7,.34a4.28,4.28,0,0,1,2.53,2.55C149.33,304.81,149,306.32,149,307.72Z"/><path class="cls-1" d="M135.15,346.18c-7.19-.06-7.29-.07-6.71-7.22.15-1.89.94-5.14,1.85-5.29,3.5-.57,7.17-.2,10.78,0,.38,0,1.05,1,1,1.49-.05,3.21-.14,6.43-.5,9.61-.07.56-1.42,1.25-2.26,1.39A25.55,25.55,0,0,1,135.15,346.18Z"/><path class="cls-1" d="M275.93,284.92c0,4.43-.69,5.31-4.38,5.38-4.4.08-5.51-1-5.57-5.54-.05-3.73,1.1-4.7,5.59-4.76C275.2,280,275.91,280.74,275.93,284.92Z"/><path d="M274.67,131.75c-6,0-11.92,0-17.87,0-6.14,0-7.79-1.57-7.79-7.61q0-16.23.05-32.45c0-5.42,1.39-7,6.9-7,8.23-.13,16.46-.11,24.69-.14,4.23,0,8.45,0,12.68,0,5.05.09,6.59,1.69,6.58,6.66q0,16.55-.07,33.09c0,5.67-1.71,7.43-7.3,7.44-6,0-11.91,0-17.87,0Zm-14.21-23.64h.26c0,2.7,0,5.39,0,8.09.07,3.32,1.73,5.38,5.13,5.41,6.25,0,12.51,0,18.76-.22a4.19,4.19,0,0,0,4.22-4.48c.08-5.71.06-11.43-.09-17.14-.05-2.26-1.36-4.13-3.71-4.22-6.56-.24-13.14-.26-19.72-.18-2.84,0-4.21,2-4.45,4.66S260.59,105.41,260.46,108.11Z"/><path d="M279.33,173.57a37.91,37.91,0,0,1-3.29,5.6c-5.39,6.46-10.91,12.8-16.43,19.15-7.45,8.54-14.87,17.11-22.44,25.54-5.47,6.1-11,12.14-16.8,18-8.41,8.5-17.05,16.79-25.57,25.18a31.63,31.63,0,0,1-2.39,2.63,6,6,0,0,1-2.22.61,12.53,12.53,0,0,1-.53-2.53c0-.44.5-.92.84-1.35,9.08-11.53,18-23.17,27.31-34.55a237,237,0,0,1,16-17.82c10.69-10.67,21.65-21.06,32.6-31.46,3.27-3.1,6.89-5.85,10.4-8.72a7.25,7.25,0,0,1,1.88-.8Z"/><path d="M58.13,178.31c6.06,5,11.52,9.25,16.65,13.85,9.65,8.67,19.33,17.31,28.58,26.39,11.31,11.1,22.22,22.61,33.22,34,4.1,4.24,8,8.71,11.94,13.08l-.52.61a17.94,17.94,0,0,1-1.93-1.21c-7.57-6.1-15.37-12-22.63-18.4Q106.88,231.92,91,216.48c-6-5.76-11.45-12-17-18.21-5.1-5.7-10-11.6-14.91-17.44A10.82,10.82,0,0,1,58.13,178.31Z"/><path d="M168.21,197.45c-.78-4.91-1.87-9.8-2.29-14.75-3.12-36.73-2.54-73.47.09-110.19.56-7.74,1.84-15.42,2.79-23.12l1-.13c.46,1.06,1.26,2.1,1.35,3.19.88,10.44,2.34,20.9,2.31,31.35-.06,31.13-.61,62.27-1.24,93.4-.14,6.77-.34,13.7-3.05,20.14Z"/><path d="M60.9,84.59c6.5,0,13-.09,19.49,0,3.94.08,5.48,1.73,5.49,5.66q0,17.53,0,35.05c0,4.41-2,6.38-6.39,6.41q-18.69.09-37.38,0c-5.45,0-7-1.85-7-7.4q0-16.39,0-32.78c0-5.24,1.51-6.79,6.74-6.82,6.39,0,12.78,0,19.17,0Zm13.9,23.9h0c0-2.16.06-4.33,0-6.49-.18-4.78-1.35-6.53-6-6.8-5.81-.34-11.67,0-17.5.19a4.26,4.26,0,0,0-4.42,4.34c-.2,5.82-.18,11.66-.08,17.49a3.92,3.92,0,0,0,3.8,4.16c6.48.21,13,.28,19.44.05,3.13-.11,4.71-2.3,4.72-5.47C74.81,113.47,74.8,111,74.8,108.49Z"/><path d="M60.59,290c6.49,0,13-.07,19.47,0,4,.06,5.7,1.76,5.72,5.83q.09,17.67,0,35.34c0,4.14-1.28,5.67-5.37,5.73-13.62.18-27.24.13-40.86.1-2.87,0-4.36-1.7-4.38-4.54-.06-12.43-.15-24.86-.08-37.28,0-3.57,1.76-5,5.73-5.07,6.6-.09,13.2,0,19.8,0Zm-1.38,37.2v.2c3.34-.2,6.7-.24,10-.65,3.93-.5,5.31-2,5.46-5.9.18-4.85,0-9.71,0-14.57,0-3.48-1.93-5.59-5.27-5.72-6-.24-12.06-.15-18.09,0-2.82.07-4.35,2.06-4.44,4.69-.22,5.7-.21,11.41-.16,17.12,0,3.15,2,4.66,5,4.8C54.24,327.28,56.73,327.19,59.21,327.19Z"/><path class="cls-1" d="M260.46,108.11c.13-2.7.17-5.4.41-8.08s1.61-4.63,4.45-4.66c6.58-.08,13.16-.06,19.72.18,2.35.09,3.66,2,3.71,4.22.15,5.71.17,11.43.09,17.14a4.19,4.19,0,0,1-4.22,4.48c-6.25.23-12.51.27-18.76.22-3.4,0-5.06-2.09-5.13-5.41-.05-2.7,0-5.39,0-8.09Z"/><path class="cls-1" d="M74.8,108.49c0,2.49,0,5,0,7.47,0,3.17-1.59,5.36-4.72,5.47-6.47.23-13,.16-19.44-.05a3.92,3.92,0,0,1-3.8-4.16c-.1-5.83-.12-11.67.08-17.49a4.26,4.26,0,0,1,4.42-4.34c5.83-.2,11.69-.53,17.5-.19,4.64.27,5.81,2,6,6.8.07,2.16,0,4.33,0,6.49Z"/><path class="cls-1" d="M59.21,327.19c-2.48,0-5,.09-7.45,0-3-.14-5-1.65-5-4.8,0-5.71-.06-11.42.16-17.12.09-2.63,1.62-4.62,4.44-4.69,6-.16,12.07-.25,18.09,0,3.34.13,5.25,2.24,5.27,5.72,0,4.86.15,9.72,0,14.57-.15,3.94-1.53,5.4-5.46,5.9-3.31.41-6.67.45-10,.65Z"/></svg>